<svg height="25" viewBox="0 0 42 25" width="42" xmlns="http://www.w3.org/2000/svg"><g fill="none" fill-rule="evenodd"><path d="m0 0h42v25h-42z" fill="#fff" fill-rule="evenodd"/><path d="m.25.25h41.5v24.5h-41.5z" stroke="#000" stroke-width=".5"/><g fill-rule="evenodd"><g fill="#1e130f" transform="translate(3.36 4.2)"><path d="m2.41069774 16.8750039h1.66951096v-16.87493767h-1.66951096z"/><path d="m4.60634087 16.8750039h.51754226v-16.87493767h-.51754226z"/><path d="m5.57485357 16.8750039h.92617669v-16.87493767h-.92617669z"/><path d="m7.39376765 16.8750039h.51754226v-16.87493767h-.51754226z"/><path d="m1.1412313 16.8750039h.51754227v-16.87493767h-.51754227z"/><path d="m0 16.8750039h.9261767v-16.87493767h-.9261767z"/><path d="m11.3003374 16.8750039h1.6692042v-16.87493767h-1.6692042z"/><path d="m13.4959805 16.8750039h.5175423v-16.87493767h-.5175423z"/><path d="m14.4641864 16.8750039h.9264835v-16.87493767h-.9264835z"/><path d="m16.2831005 16.8750039h.5175423v-16.87493767h-.5175423z"/><path d="m10.0305642 16.8750039h.5175422v-16.87493767h-.5175422z"/><path d="m8.88933287 16.8750039h.92648348v-16.87493767h-.92648348z"/><path d="m18.0805398 16.8750039h.9264835v-16.87493767h-.9264835z"/><path d="m19.8994539 16.8750039h.5175423v-16.87493767h-.5175423z"/><path d="m22.5362504 16.8750039h.5175423v-16.87493767h-.5175423z"/><path d="m21.3950191 16.8750039h.9264835v-16.87493767h-.9264835z"/><path d="m23.7412925 16.8750039h.5175423v-16.87493767h-.5175423z"/><path d="m26.378089 16.8750039h.5175423v-16.87493767h-.5175423z"/><path d="m25.2371645 16.8750039h.9261767v-16.87493767h-.9261767z"/><path d="m27.3466017 16.8750039h1.669511v-16.87493767h-1.669511z"/><path d="m29.5425517 16.8750039h.5175422v-16.87493767h-.5175422z"/><path d="m30.5107576 16.8750039h.9261767v-16.87493767h-.9261767z"/><path d="m32.3296717 16.8750039h.5175422v-16.87493767h-.5175422z"/><path d="m34.1268042 16.8750039h.9261767v-16.87493767h-.9261767z"/></g><path d="m7.69815991 23.1h26.69354919v-10.454052h-26.69354919z" fill="#fefefe"/><path d="m10.92 19.44432h1.42296c.82908 0 1.48764-.34692 1.48764-1.12896 0-.51156-.29988-.79968-.68796-.89964v-.02352c.31164-.1176.4998-.48804.4998-.82908 0-.735-.6174-.95256-1.4112-.95256h-1.31124zm.86436-2.29908v-.86436h.4116c.40572 0 .59976.11172.59976.4116 0 .27636-.18228.45276-.60564.45276zm0 1.62876v-.98784h.48804c.47628 0 .71148.13524.71148.4704 0 .3528-.24108.51744-.71148.51744zm4.25124.74088c1.03488 0 1.74048-.75264 1.74048-2.00508 0-1.24656-.7056-1.9698-1.74048-1.9698s-1.74048.71736-1.74048 1.9698.7056 2.00508 1.74048 2.00508zm0-.74676c-.52332 0-.8526-.48804-.8526-1.25832 0-.7644.32928-1.22304.8526-1.22304s.8526.45864.8526 1.22304c0 .77028-.32928 1.25832-.8526 1.25832zm2.46372.6762h2.3814v-.72912h-1.51704v-3.10464h-.86436zm3.04584 0h2.45784v-.72912h-1.59348v-.882h1.30536v-.72324h-1.30536v-.77028h1.53468v-.72912h-2.39904zm3.969 0h.87024v-3.10464h1.05252v-.72912h-2.97528v.72912h1.05252zm4.08072.07056c1.03488 0 1.74048-.75264 1.74048-2.00508 0-1.24656-.7056-1.9698-1.74048-1.9698s-1.74048.71736-1.74048 1.9698.7056 2.00508 1.74048 2.00508zm0-.74676c-.52332 0-.8526-.48804-.8526-1.25832 0-.7644.32928-1.22304.8526-1.22304s.8526.45864.8526 1.22304c0 .77028-.32928 1.25832-.8526 1.25832z" fill="#000"/></g></g></svg>